<svg xmlns="http://www.w3.org/2000/svg" viewBox="0 0 64 64" x="0px" y="0px">
    <g>
        <path d="M59,2H27a3,3,0,0,0-3,3V26H5a3,3,0,0,0-3,3V59a3,3,0,0,0,3,3H35a3,3,0,0,0,3-3V40H59a3,3,0,0,0,3-3V5A3,3,0,0,0,59,2ZM36,59a1,1,0,0,1-1,1H5a1,1,0,0,1-1-1V29a1,1,0,0,1,1-1H35a1,1,0,0,1,1,1ZM60,37a1,1,0,0,1-1,1H38V29a3,3,0,0,0-3-3H26V5a1,1,0,0,1,1-1H59a1,1,0,0,1,1,1Z"/>
        <path d="M20,39a5,5,0,1,0,5,5A5.006,5.006,0,0,0,20,39Zm0,8a3,3,0,1,1,3-3A3,3,0,0,1,20,47Z"/>
        <path d="M11,40a5,5,0,1,0-5-5A5.006,5.006,0,0,0,11,40Zm0-8a3,3,0,1,1-3,3A3,3,0,0,1,11,32Z"/>
        <path d="M11,48a5,5,0,1,0,5,5A5.006,5.006,0,0,0,11,48Zm0,8a3,3,0,1,1,3-3A3,3,0,0,1,11,56Z"/>
        <path d="M29,30a5,5,0,1,0,5,5A5.006,5.006,0,0,0,29,30Zm0,8a3,3,0,1,1,3-3A3,3,0,0,1,29,38Z"/>
        <path d="M43,16a5,5,0,1,0,5,5A5.006,5.006,0,0,0,43,16Zm0,8a3,3,0,1,1,3-3A3,3,0,0,1,43,24Z"/>
        <path d="M53,26a5,5,0,1,0,5,5A5.006,5.006,0,0,0,53,26Zm0,8a3,3,0,1,1,3-3A3,3,0,0,1,53,34Z"/>
        <path d="M33,6a5,5,0,1,0,5,5A5.006,5.006,0,0,0,33,6Zm0,8a3,3,0,1,1,3-3A3,3,0,0,1,33,14Z"/>
        <path d="M29,48a5,5,0,1,0,5,5A5.006,5.006,0,0,0,29,48Zm0,8a3,3,0,1,1,3-3A3,3,0,0,1,29,56Z"/>
        <rect x="55" y="6" width="2" height="2"/>
        <rect x="51" y="9" width="2" height="2"/>
    </g>
</svg>